<?xml version="1.0" standalone="no"?>
<!DOCTYPE svg PUBLIC "-//W3C//DTD SVG 1.1//EN" "http://www.w3.org/Graphics/SVG/1.1/DTD/svg11.dtd" >
<svg xmlns="http://www.w3.org/2000/svg">
<metadata>Generated by IcoMoon</metadata>
<defs>
<font id="icomoon" horiz-adv-x="1024">
<font-face units-per-em="1024" ascent="960" descent="-64" />
<missing-glyph horiz-adv-x="1024" />
<glyph unicode="&#x20;" horiz-adv-x="512" d="" />
<glyph unicode="&#xe600;" glyph-name="base" d="M503.163 932.762c-3.144-1.966-113.285-111.319-244.634-242.862-267.602-268.206-247.972-246.405-247.972-276.644 0-12.964 0.788-17.674 5.11-26.9 15.514-33.178 55.562-47.319 88.351-30.822 5.888 2.744 70.287 65.772 208.312 203.602l199.67 199.67 199.864-199.67c138.619-138.424 202.23-200.858 208.118-203.602 32.788-16.497 72.837-2.355 88.351 30.822 4.321 9.226 5.11 13.937 5.11 26.9 0 30.239 19.63 8.243-248.955 277.617-141.363 141.558-242.278 241.295-246.006 242.862-8.049 3.543-8.253 3.543-15.319-0.973zM316.058 511.816l-194.765-194.765v-346.337l9.421-10.998h762.573l9.421 10.998v346.337l-194.959 194.959c-107.008 107.008-195.154 194.765-195.748 194.765s-88.74-87.757-195.942-194.959z" />
<glyph unicode="&#xe601;" glyph-name="wanggehua" d="M10.24 866.099c0 46.182 37.376 83.661 83.661 83.661h288.768c46.182 0 83.661-37.376 83.661-83.661v-288.768c0-46.182-37.376-83.661-83.661-83.661h-288.768c-46.182-0.102-83.661 37.274-83.661 83.558v288.87zM10.24 318.771c0 46.182 37.376 83.661 83.661 83.661h288.768c46.182 0 83.661-37.376 83.661-83.661v-288.768c0-46.182-37.376-83.661-83.661-83.661h-288.768c-46.182-0.102-83.661 37.274-83.661 83.558v288.87zM557.568 866.099c0 46.182 37.376 83.661 83.661 83.661h288.768c46.182 0 83.661-37.376 83.661-83.661v-288.768c0-46.182-37.376-83.661-83.661-83.661h-288.768c-46.182 0-83.661 37.376-83.661 83.661v288.768zM557.568 318.771c0 46.182 37.376 83.661 83.661 83.661h288.768c46.182 0 83.661-37.376 83.661-83.661v-288.768c0-46.182-37.376-83.661-83.661-83.661h-288.768c-46.182 0-83.661 37.376-83.661 83.661v288.768z" />
<glyph unicode="&#xe602;" glyph-name="share" d="M157.082 805.069c-99.328-99.226-148.89-217.907-146.739-356.045-2.15-138.035 47.411-256.717 146.739-353.894v-2.15c97.075-97.075 215.757-144.589 356.045-146.739 138.138 2.15 254.669 49.664 353.894 148.89 97.075 97.178 146.739 215.859 146.739 353.894 0 138.138-49.664 256.819-146.739 356.045v0c-99.328 97.178-215.757 146.739-353.894 144.589-140.288 2.15-258.97-47.411-356.045-144.589zM200.192 757.658h2.15c86.323 86.323 189.85 129.434 310.682 127.283 120.832 2.15 222.31-40.96 308.634-127.283 84.173-84.173 127.386-187.802 127.386-308.634s-43.213-224.358-127.283-308.531c-86.323-86.323-187.699-127.283-308.634-129.434-122.982 2.15-226.611 43.213-312.934 129.434-84.173 84.173-125.133 187.699-125.133 308.531s40.96 222.31 125.133 308.634zM165.683 522.445c-21.606-19.456-30.208-45.363-30.208-75.571 0-28.058 8.602-51.814 30.208-73.318 19.456-19.456 45.261-30.208 75.571-30.208 28.058 0 53.965 10.752 73.318 30.208h-2.15c2.15 2.15 4.301 4.301 6.451 4.301l293.478-140.288c-2.15-6.451-2.15-15.155-2.15-21.606 0-30.208 8.602-53.965 30.208-73.421 19.456-21.606 45.363-32.358 73.318-32.358 30.208 0 53.965 10.752 75.571 30.208v2.15c21.606 19.456 30.208 43.213 30.208 73.421 0 28.058-10.752 53.965-30.208 75.571-21.606 19.456-45.363 30.208-75.571 30.208-28.058 0-53.965-10.752-73.318-30.208-4.301-4.301-8.602-8.602-10.752-12.902l-289.178 138.035c4.301 8.602 4.301 19.456 4.301 30.208 0 12.902-2.15 23.757-4.301 34.509l289.178 138.138c2.15-4.301 6.451-8.602 10.752-12.902 19.456-21.606 45.363-32.358 73.318-32.358 30.208 0 53.965 10.752 75.571 30.208v2.15c21.606 19.456 30.208 43.11 30.208 73.318 0 28.058-10.752 53.965-30.208 75.571-21.606 19.456-45.363 30.208-75.571 30.208-28.058 0-53.965-10.752-73.318-30.208-21.606-21.606-30.208-47.514-30.208-75.571 0-8.602 0-12.902 2.15-21.606l-293.478-140.288c-2.15 2.15-4.301 4.301-4.301 4.301-21.606 21.606-45.363 30.208-73.318 30.208-30.31 0.102-56.115-8.602-75.571-30.106zM195.891 492.237c13.005 12.902 28.058 17.306 45.363 17.306s30.208-4.301 43.11-17.306c2.15-2.15 6.451-6.451 8.602-10.752v-2.15c6.451-8.602 8.602-19.456 8.602-32.358 0-10.752-2.15-21.606-6.451-30.208-2.15-4.301-6.451-8.602-10.752-10.752 0 0 0 0 0-2.15-13.005-10.752-28.058-17.306-43.11-17.306-19.456 0-34.509 6.451-45.363 17.306-12.902 12.902-17.306 25.907-17.306 43.11s4.403 32.256 17.306 45.261v0zM670.618 723.046v2.15c13.005 10.752 28.058 17.306 43.213 17.306 19.456 0 32.358-6.451 43.213-17.306 13.005-12.902 19.456-28.058 19.456-45.363s-6.451-32.358-19.456-43.213c-10.752-12.902-25.907-19.456-43.213-19.456s-32.358 6.451-43.213 19.456c-6.451 4.301-8.602 10.752-12.902 17.306 0 2.15 0 2.15 0 2.15-2.15 8.602-4.301 15.155-4.301 23.757 0 17.408 4.301 32.461 17.203 43.213zM713.83 278.63c19.456 0 32.358-6.451 43.213-17.306 13.005-12.902 19.456-28.058 19.456-45.363s-6.451-32.358-19.456-43.11c-10.752-12.902-25.907-19.456-43.213-19.456s-32.358 6.451-43.213 19.456c-12.902 10.752-17.306 25.907-17.306 43.11 0 8.602 0 17.306 4.301 23.757 0 2.15 0 2.15 0 2.15s0 2.15 2.15 2.15c2.15 6.451 4.301 10.752 10.752 17.306v-2.15c10.957 12.902 26.010 19.456 43.315 19.456z" />
<glyph unicode="&#xe603;" glyph-name="shangcheng" d="M463.258 531.046h39.526v47.411h-43.52l3.994-47.411zM372.326 487.526l15.872-59.29h39.526l-3.994 59.29h-51.405zM415.846 578.458h-67.174l11.878-47.411h59.29l-3.994 47.411zM550.298 424.243h31.642l3.994 63.283h-35.635v-63.283zM471.245 428.237h31.642v59.29h-35.635l3.994-59.29zM550.298 531.046h39.526l3.994 47.411h-43.52v-47.411zM637.235 531.046h55.398l15.872 47.411h-67.174l-4.096-47.411zM625.459 428.237h31.642l19.763 59.29h-47.411l-3.994-59.29zM512 949.76c-277.094 0-501.76-224.666-501.76-501.76s224.666-501.76 501.76-501.76c277.094 0 501.76 224.666 501.76 501.76s-224.666 501.76-501.76 501.76zM435.61 194.97c-23.757 0-39.526 15.77-39.526 39.526s19.763 39.526 39.526 39.526c19.763 0 39.526-15.77 39.526-39.526s-15.77-39.526-39.526-39.526zM633.344 194.97c-23.757 0-39.526 15.77-39.526 39.526s19.763 39.526 39.526 39.526c19.763 0 39.526-15.77 39.526-39.526s-15.872-39.526-39.526-39.526zM763.802 594.33c0-7.885-3.994-11.878-7.885-15.872l-55.398-169.984v-15.77c0-7.885-7.885-15.77-15.77-15.77h-284.672l11.878-47.411h272.794c7.885 0 15.77-7.885 15.77-15.872v-15.77c0-7.885-7.885-15.872-15.77-15.872h-284.672c-3.994 0-7.885 3.994-11.878 7.885-7.885 0-11.878 3.994-11.878 11.878l-94.925 351.846h-51.405c-7.885 0-15.77 7.885-15.77 15.77v15.872c0 7.885 7.885 15.77 15.77 15.77h75.162c7.885 0 15.872-7.885 15.872-15.77l15.77-59.29h411.136c7.885 0 15.77-7.885 15.77-15.77v-15.872z" />
<glyph unicode="&#xe604;" glyph-name="zhinan" d="M512 949.76c-277.094 0-501.76-224.666-501.76-501.76s224.666-501.76 501.76-501.76c277.094 0 501.76 224.666 501.76 501.76s-224.666 501.76-501.76 501.76zM557.67 308.736l-282.214-132.608c-22.528-10.547-45.978 12.8-35.328 35.328l132.608 282.214c8.090 17.203 29.491 26.214 39.219 16.589l162.304-162.304c9.626-9.728 0.512-31.13-16.589-39.219zM783.872 684.544l-132.608-282.214c-8.090-17.203-29.491-26.214-39.219-16.589l-162.202 162.406c-9.626 9.626-0.614 31.13 16.589 39.219l282.112 132.506c22.528 10.65 45.978-12.8 35.328-35.328z" />
<glyph unicode="&#xe605;" glyph-name="jumin" d="M211.18 818.401c-43.428-11.674-78.653-39.946-97.71-78.858-12.288-25.19-15.77-40.151-15.974-67.594 0-75.581 50.391-149.524 117.576-172.268 8.192-2.867 17.203-3.891 33.188-3.891 19.661 0 22.323 0.41 27.648 4.71 14.131 11.469 37.478 28.672 39.537 29.501 1.638 0.41 0.41 7.168-4.096 20.48l-6.554 19.661-10.445-7.987c-16.589-12.493-29.901-16.794-49.572-15.77-21.709 1.229-36.26 8.192-54.487 26.419-24.986 24.791-40.356 58.788-42.404 93.194-0.614 13.722 0 21.504 2.662 30.72 11.469 39.946 42.609 68.209 82.545 74.762 28.877 4.71 60.017-4.71 81.316-24.986 6.144-5.939 11.674-10.24 11.878-9.83 0.41 0.41 3.891 5.53 7.578 11.059 3.686 5.734 10.445 14.541 14.746 19.661l7.782 9.626-9.83 8.806c-13.926 12.493-33.393 23.552-52.644 29.911-22.723 7.383-60.621 8.612-82.739 2.673zM737.802 816.353c-8.192-2.253-22.118-7.578-30.72-12.288-15.565-7.987-36.874-23.767-37.079-27.443-0.205-0.819 4.301-7.373 9.626-14.336 5.53-6.758 11.878-15.77 14.336-19.866l4.506-7.373 9.626 9.011c12.288 11.674 35.236 22.733 52.439 25.805 49.572 8.397 99.953-24.781 113.070-74.557 14.336-53.463-23.347-128.020-74.353-147.272-22.733-8.806-49.777-3.277-72.509 14.746-5.53 4.301-7.987 5.325-8.602 3.277-0.614-1.434-3.482-10.035-6.554-19.046-3.891-11.469-4.71-16.384-3.072-16.998 2.458-0.819 27.238-19.456 40.97-30.525 6.554-5.325 8.192-5.734 26.624-5.734 23.347 0 41.37 5.12 61.45 16.794 57.149 33.587 96.891 113.48 88.484 177.388-4.915 36.045-17.818 62.065-44.247 88.689-15.77 15.974-21.504 20.070-37.898 28.058-10.65 5.325-25.395 10.854-32.778 12.493-18.831 4.506-54.477 4.096-73.318-0.819zM474.798 806.103c-36.055-7.578-64.317-23.347-91.761-51.21-34.611-35.236-51.21-75.991-51.21-125.768 0-47.114 17.203-96.471 47.319-136.417 37.284-49.162 81.93-73.943 132.936-73.943s96.471 25.395 132.936 74.148c30.31 40.356 47.319 89.098 47.319 136.212 0 35.236-8.397 65.341-27.034 96.481-8.602 14.746-38.103 44.657-53.873 54.897-39.547 25.805-90.542 35.441-136.632 25.6zM537.068 740.352c38.707-7.987 72.919-40.346 84.797-80.701 5.325-17.613 4.915-46.5-1.024-67.594-18.842-67.799-73.124-114.913-121.672-105.492-41.585 7.987-80.701 51.21-95.857 105.492-5.734 20.89-6.144 49.777-1.024 67.594 11.469 39.127 42.404 69.642 81.111 79.677 13.517 3.697 38.922 4.096 53.668 1.024zM100.157 565.228c-43.622-23.347-76.401-67.799-86.641-117.985-2.662-13.107-3.277-32.154-3.277-110.612v-94.833l4.915-10.445c5.939-12.902 17.408-24.576 29.696-30.31 9.011-4.096 13.107-4.301 81.725-4.915l72.1-0.614v63.089c0 101.181 2.253 115.937 26.010 174.111 0.41 1.229-1.843 2.867-5.939 3.686-49.367 9.83-88.484 40.97-102.001 81.111-3.686 10.65-4.301 16.384-3.482 30.525 0.41 9.626 1.638 19.046 2.458 21.094 2.058 4.905-0.195 4.291-15.565-3.901zM908.626 566.252c1.024-3.891 1.843-15.77 1.843-26.624 0-18.842-0.205-20.070-8.602-37.069-9.83-19.661-28.262-39.127-47.923-50.391-10.24-5.734-35.441-14.95-49.367-17.613l-5.325-1.229 6.963-17.203c16.179-39.731 19.251-64.727 19.251-158.536v-64.113l72.305 0.614c63.703 0.614 72.919 1.024 79.882 4.301 10.65 4.915 25.395 18.842 30.72 29.092 4.506 7.987 4.506 10.24 5.12 103.444 0.819 103.444 0.205 112.046-10.035 140.104-14.336 39.537-43.837 73.124-82.545 94.628l-13.926 7.578 1.638-6.984zM334.899 502.548c-41.175-24.371-75.377-66.57-90.941-111.841-9.83-28.887-10.65-41.175-10.035-158.331l0.614-109.384 5.53-10.65c8.192-15.565 16.179-23.552 30.72-31.539l12.902-6.963h456.765l12.902 6.963c14.541 7.987 22.528 15.974 30.72 31.539l5.53 10.65v117.78c0 116.756 0 117.985-4.71 135.188-5.939 21.504-19.866 51.62-31.959 68.413-12.902 18.022-34.611 38.717-53.463 51.415-17.203 11.469-31.14 18.842-32.573 17.203-0.614-0.41 0.41-6.349 2.048-13.107 3.482-15.565 3.482-23.142-0.205-40.561-10.24-48.753-52.644-88.279-110.817-102.83-23.552-6.144-61.245-6.963-84.183-2.253-63.908 13.517-110.612 57.149-119.624 111.636-2.458 14.131-0.819 32.768 3.482 44.247 2.284 5.53-4.065 3.482-22.702-7.578z" />
<glyph unicode="&#xe606;" glyph-name="juwu" d="M890.163 495.718v-67.072h-379.29c10.445-14.234 19.558-29.594 27.238-45.773h352.154v-66.97h-330.65c2.97-16.282 4.71-32.973 4.71-50.074 0-58.982-18.637-113.459-50.176-158.31 5.53-35.533 21.606-64.614 59.802-64.614h373.658v624.435h-654.438v-125.85c54.579-0.922 105.267-17.613 147.763-45.773h449.229zM365.978 608.461h524.186v-67.072h-524.186v67.072zM372.326 746.803c22.426 0 40.55 15.053 40.55 33.485v93.696c0 18.534-18.227 33.485-40.55 33.485-22.528 0-40.653-15.053-40.653-33.485v-93.696c0-18.432 18.125-33.485 40.653-33.485zM870.298 746.803c22.426 0 40.653 15.053 40.653 33.485v93.696c0 18.534-18.125 33.485-40.653 33.485-22.426 0-40.653-15.053-40.653-33.485v-93.696c0-18.432 18.227-33.485 40.653-33.485zM621.261 746.803c22.426 0 40.653 15.053 40.653 33.485v93.696c0 18.534-18.227 33.485-40.653 33.485-22.426 0.102-40.653-14.95-40.653-33.485v-93.696c0-18.432 18.227-33.485 40.653-33.485zM365.978 608.461h524.186v-67.072h-524.186v67.072zM939.827 870.093v-48.845c7.68-10.24 12.186-22.323 12.186-35.226 0-37.171-36.557-67.379-81.613-67.379s-81.613 30.106-81.613 67.379c0 12.902 4.506 24.986 12.186 35.226v48.845h-110.182v-48.845c7.68-10.24 12.186-22.323 12.186-35.226 0-37.171-36.557-67.379-81.613-67.379s-81.613 30.106-81.613 67.379c0 12.902 4.506 24.986 12.186 35.226v48.845h-110.182v-48.845c7.68-10.24 12.186-22.323 12.186-35.226 0-37.171-36.557-67.379-81.613-67.379s-81.613 30.106-81.613 67.379c0 12.902 4.506 24.986 12.186 35.226v48.845h-75.674v-332.8c-124.211-27.75-216.986-138.547-216.986-271.053 0-153.395 124.416-277.811 277.811-277.811 54.374 0 105.062 15.667 147.866 42.598l51.61-42.598h526.234v881.664h-73.933zM450.15 132.403l-134.451-46.592c-7.475-2.56-16.998-6.554-27.546-6.554-10.65 0-19.251 3.789-27.648 6.554l-134.451 46.592v268.186h324.096v-268.186zM947.712 43.008h-373.76c-37.376 0-53.555 27.955-59.392 62.362 32.256 45.363 51.302 100.966 51.302 160.87 0 16.998-1.536 33.587-4.403 49.664h328.704v67.072h-349.901c-7.475 16.179-16.486 31.437-26.829 45.773h376.73v67.072h-445.44c-43.315 29.594-95.334 47.206-151.45 48.23v123.29h654.438v-624.333zM248.32 344.371h80.179v-18.022h-80.179v18.022zM355.328 344.371h80.179v-18.022h-80.179v18.022zM140.698 344.371h80.179v-18.022h-80.179v18.022z" />
<glyph unicode="&#xe607;" glyph-name="shiwu" d="M626.995-53.862h-124.416l-492.339 508.211v112.23l142.438 111.309 196.608-202.24 16.179 8.397c0.922 0.512 93.389 49.459 190.771 147.251 94.106 94.515 118.579 264.397 118.784 266.138l1.126 7.885 5.632 5.632c24.883 25.088 58.061 38.81 93.286 38.81s68.403-13.824 93.286-38.81l106.906-107.52c51.302-51.61 51.302-135.578 0-187.187l-5.939-5.939-8.397-0.922c-1.638-0.205-164.454-19.251-255.283-110.49-100.557-101.069-154.829-199.885-155.443-200.909l-10.138-18.534 198.861-204.595-111.923-128.717zM522.752-6.144h82.534l69.018 79.258-526.029 540.877-90.317-70.656v-69.734l464.794-479.744zM415.232 457.83l109.261-109.875c23.757 37.888 73.318 110.182 147.354 184.627 43.418 43.622 104.448 77.824 181.453 101.581 42.189 13.005 77.312 19.149 93.286 21.402 27.648 33.28 25.907 83.046-5.12 114.176l-106.906 107.52c-15.872 15.974-36.966 24.781-59.494 24.781-20.070 0-39.014-6.963-54.17-19.866-2.765-16.077-9.933-52.941-24.474-97.28-26.010-79.565-61.85-142.541-106.394-187.29-70.861-71.168-138.445-117.35-174.797-139.776z" />
<glyph unicode="&#xe608;" glyph-name="caiwu" d="M401.613 763.904l-96.051-117.248c-231.117-168.653-294.81-571.802-97.178-669.184 68.403-33.69 465.818-41.472 575.693-16.691 247.501 56.115 130.765 461.312 49.050 588.186-135.475 210.432-283.546 104.448-149.811 382.976-220.365 51.507-118.784-35.43-230.81-35.43-28.467 0-42.803 53.248-71.27 53.248-60.314 0-52.224-25.805-30.515-63.488-1.843-60.314 32.666-95.232 50.893-122.368v0zM514.97 364.442c0.307-0.307 1.843-0.819 3.891-1.331 36.557-7.066 63.693-19.866 82.022-38.605s27.136-43.315 27.136-73.933c0-31.027-9.933-58.266-30.003-80.896-19.866-22.938-47.514-35.226-83.046-37.376v-48.333h-28.467v47.821c-36.045 4.198-63.693 15.974-83.046 35.226-19.354 19.354-30.31 46.694-32.666 81.408l47.821 8.397c3.686-26.112 11.264-46.182 22.426-60.314 11.469-14.336 26.624-22.426 45.466-24.269v152.269c-35.738 7.782-62.669 20.89-80.691 38.912-17.715 18.227-26.931 41.677-26.931 70.451 0 28.467 8.909 53.043 26.624 73.318 17.715 20.378 44.646 32.358 80.896 35.533v22.733h28.467v-22.733c30.003-3.174 53.76-12.493 71.27-28.672 17.203-16.179 28.16-38.605 32.666-67.584l-49.562-7.27c-2.867 18.022-8.909 32.358-17.715 43.11-9.114 10.445-21.402 17.203-36.557 20.070v-137.933zM486.502 370.176v132.608c-19.354-3.174-33.894-10.957-44.134-23.245-10.445-11.981-15.36-26.112-15.36-41.984 0-18.227 5.222-32.666 15.667-43.11 10.65-10.445 25.293-18.534 43.827-24.269v0zM514.97 172.237c18.534 2.867 33.894 10.957 45.978 24.269s18.022 30.31 18.022 50.688c0 17.715-4.403 32.358-13.619 43.11-9.114 10.957-25.805 20.070-50.381 27.648v-145.715z" />
<glyph unicode="&#xe609;" glyph-name="zhengzhi" d="M293.274 518.349l-24.781-144.384c-3.891-22.733 2.355-45.875 17.203-63.488 14.95-17.715 36.659-27.853 59.802-27.853 12.595 0 25.19 3.072 36.352 9.011l129.638 68.096 129.638-68.096c11.162-5.939 23.757-9.011 36.352-9.011 23.040 0 44.851 10.138 59.802 27.853 14.848 17.613 21.094 40.755 17.203 63.488l-24.781 144.384 104.858 102.195c21.402 20.89 28.979 51.61 19.763 80.077s-33.382 48.845-63.078 53.146l-144.896 21.094-64.717 131.379c-13.312 26.829-40.141 43.52-70.144 43.52s-56.832-16.691-70.042-43.52l-64.819-131.277-144.896-21.094c-29.696-4.301-53.862-24.678-63.078-53.146s-1.638-59.187 19.763-80.077l104.858-102.298zM241.152 688.845l172.646 25.088c4.096 0.614 7.578 3.174 9.421 6.758l77.21 156.365c2.253 4.608 6.758 6.963 11.162 6.963s8.909-2.355 11.162-6.963l77.21-156.365c1.843-3.686 5.325-6.246 9.421-6.758l172.646-25.088c10.24-1.434 14.336-14.029 6.861-21.197l-124.928-121.754c-2.97-2.867-4.301-6.963-3.584-11.059l29.491-171.93c1.331-8.090-5.018-14.541-12.288-14.541-1.946 0-3.891 0.41-5.837 1.434l-154.419 81.203c-1.843 0.922-3.789 1.434-5.837 1.434-1.946 0-3.994-0.512-5.837-1.434l-154.419-81.203c-1.946-1.024-3.891-1.434-5.837-1.434-7.27 0-13.619 6.554-12.288 14.541l29.491 171.93c0.717 3.994-0.614 8.192-3.584 11.059l-124.928 121.754c-7.168 7.168-3.072 19.661 7.066 21.197zM936.038 333.619c-17.92 9.318-47.002 23.757-83.763 38.912-16.794 6.963-35.942-1.024-42.906-17.818s1.024-35.942 17.715-42.906c32.973-13.619 59.187-26.522 76.083-35.226l-67.379-257.638c-73.216 28.467-226.202 69.837-323.482 69.939h-0.102c-0.102 0-0.205 0-0.307 0s-0.205 0-0.307 0h-0.102c-97.178-0.102-250.266-41.574-323.482-69.939l-67.174 257.741c16.896 8.704 43.11 21.606 76.083 35.226 16.794 6.963 24.678 26.112 17.818 42.906-6.963 16.794-26.112 24.678-42.906 17.715-36.762-15.258-65.843-29.594-83.763-38.912-25.907-13.517-38.81-42.701-31.334-70.861l71.885-274.944c1.638-14.541 10.138-27.546 22.835-35.123 7.373-4.301 15.565-6.554 23.859-6.554 6.656 0 13.414 1.434 19.661 4.301 55.398 25.498 223.334 72.602 317.030 72.704 0.102 0 0.102 0 0.205 0s0.102 0 0.205 0c93.696-0.102 261.632-47.309 317.030-72.704 6.246-2.867 12.902-4.301 19.661-4.301 8.294 0 16.486 2.15 23.859 6.554 12.698 7.475 21.197 20.48 22.835 35.123l71.885 274.944c7.168 28.16-5.734 57.344-31.642 70.861z" />
<glyph unicode="&#xe60a;" glyph-name="dang" d="M101.069-53.76c-4.813 0-9.523 0-14.336 0-30.106 9.421-63.078 15.872-60.621 58.778 0 12.595 0 25.19 0 37.786-1.741 36.25 20.787 54.067 50.893 64.41 21.606 7.373 22.938 17.408 8.397 32.768-52.122 55.091-36.659 64 10.035 109.67 27.443 26.931 35.635 26.931 66.662 2.048 69.734-55.91 146.125-97.894 235.008-114.586 71.987-13.517 142.029-6.758 210.022 20.173 30.515 12.083 32.154 19.046 9.728 41.984-83.149 85.094-174.182 162.202-255.795 248.934-14.643 15.565-27.443 15.36-41.984-0.307s-29.901-30.72-45.67-45.158c-14.746-13.619-29.696-14.131-44.237-0.307-37.069 35.328-73.626 71.168-108.339 108.749-19.046 20.582-9.728 38.707 6.554 56.218 42.803 46.285 83.968 94.106 130.048 137.318 8.704 8.192 18.637 15.667 24.883 25.498 33.587 52.838 78.131 80.282 143.155 68.71 20.685-3.686 38.81 9.83 55.706 20.992 20.173 13.312 37.888 10.957 54.272-6.349 1.638-1.741 3.379-3.277 5.12-4.915 57.958-54.272 58.163-57.754 3.174-114.995-13.21-13.824-24.064-29.491-36.864-43.622-30.618-33.894-30.72-34.099 0.307-65.024 82.432-82.534 164.864-165.069 247.501-247.501 29.696-29.696 39.322-27.853 50.074 13.517 27.648 107.11 20.992 211.763-23.245 314.266-45.363 105.472-115.917 187.802-213.811 246.886-7.066 4.301-15.053 7.987-20.173 14.541-13.005 16.691-6.042 23.245 12.595 23.040 192.717-19.354 325.427-120.32 403.968-295.731 23.245-51.917 35.738-105.574 33.28-162.611 0-27.034 0-53.965 0-80.896 3.584-74.445-14.848-143.36-55.91-205.21-17.203-26.010-13.722-43.622 8.704-63.898 18.739-16.998 42.189-31.846 46.899-60.314-25.19-46.592-63.078-82.432-101.786-117.146-14.131-12.698-30.925-9.421-45.363 3.174-14.336 12.493-27.648 26.214-40.96 39.834-14.234 14.541-28.877 19.149-47.616 8.090-113.152-66.56-236.851-74.445-362.701-59.904-61.85 7.168-118.272 34.509-171.418 67.686-37.274 23.347-38.093 22.733-47.411-18.227-9.626-42.394-41.267-54.17-78.746-58.368z" />
<glyph unicode="&#xe60b;" glyph-name="dingdan" d="M784.077 463.258c-1.741 25.19-21.606 44.339-46.080 44.339h-451.891c-24.371 0-44.954-20.685-44.954-45.363 0-24.576 20.582-45.363 44.954-45.363h453.222c24.371 0 44.954 20.685 44.954 45.363l-0.205 1.024zM408.064 815.002h210.432c31.949 0 58.982 30.822 58.982 67.379 0 37.171-27.034 67.379-60.314 67.379h-209.101c-33.28 0-60.314-30.208-60.314-67.379s27.034-67.379 60.314-67.379v0zM739.226 676.25h-453.12c-24.371 0-44.954-20.685-44.954-45.363 0-24.576 20.582-45.363 44.954-45.363h453.222c24.371 0 44.954 20.685 44.954 45.363-0.205 24.474-20.787 45.363-45.056 45.363v0zM737.894 324.71h-451.789c-24.371 0-44.954-20.685-44.954-45.363 0-24.576 20.582-45.363 44.954-45.363h453.222c24.371 0 44.954 20.685 44.954 45.363v1.024c-2.048 25.19-21.914 44.339-46.387 44.339v0zM944.538 880.026c-24.064 26.010-58.573 39.834-99.942 39.834h-60.314c-24.064 0-49.971-15.872-49.971-41.472 0-24.166 24.781-47.923 49.971-47.923h60.314c28.058 0 46.387-18.33 46.387-46.797v-701.645c0-28.365-18.125-46.797-46.387-46.797h-649.626c-29.082 0-61.645 19.968-61.645 46.797v701.85c0 28.365 18.125 46.797 46.182 46.797h75.776c22.221 0 37.171 19.251 37.171 47.923 0 25.907-13.824 41.472-37.171 41.472h-75.776c-84.275-0.102-134.758-51.507-134.758-137.421v-693.862c0-86.63 55.398-142.541 141.107-142.541h652.186c91.034 0 141.107 50.688 141.107 142.541v693.862c0.102 39.117-11.878 72.806-34.611 97.382v0z" />
<glyph unicode="&#xe60c;" glyph-name="qianbao" d="M641.71 947.855c-15.503-4.116-24.924-11.387-80.845-62.986-30.024-27.474-55.142-50.033-55.921-49.838-0.788 0-8.049 7.649-16.087 16.681-17.275 19.61-30.618 29.030-46.316 33.157-14.131 3.727-22.374 3.727-35.717 0.195-15.309-4.116-24.136-10.404-52.398-36.301l-25.508-23.552-113.029-0.195c-106.752 0-113.807-0.195-128.532-3.922-36.106-9.226-64.164-37.284-73.39-73.39-2.161-8.632-3.922-21.391-3.727-28.457v-12.954l2.939 10.598c6.871 25.702 27.668 52.193 51.016 64.358 22.374 11.971 26.88 12.36 133.243 12.165h96.154l-16.681-15.503-16.486-15.503-84.572-0.594c-81.828-0.788-84.767-0.788-96.154-5.1-30.413-11.387-53.176-34.54-64.164-65.147l-4.516-12.759v-649.492l4.516-12.759c12.165-33.946 38.072-58.081 71.823-66.714 15.309-3.922 20.797-3.922 393.636-3.922 370.678 0 378.327 0 393.236 3.922 34.335 8.827 59.259 31.59 72.407 66.324 3.922 10.598 4.127 14.909 4.905 95.959l0.584 84.961h-62.986v-51.61c0-55.921-1.178-64.758-10.988-84.183-7.066-13.926-25.897-33.157-39.834-40.622-23.941-12.759-1.966-11.971-357.325-11.971-355.369 0-333.394-0.788-357.335 11.971-13.937 7.455-32.768 26.685-39.834 40.622-11.581 22.764-10.988 9.421-10.988 292.772 0 286.095-0.584 270.797 11.971 294.339 7.649 14.52 24.525 31.396 39.045 39.045 23.747 12.759 1.966 11.971 357.13 11.971 356.147 0 333.189 0.788 357.919-12.36 22.364-11.776 40.417-35.318 47.288-61.225 2.355-9.032 2.939-23.153 2.939-63.191v-51.61h62.986l-0.584 84.961c-0.788 81.039-0.983 85.361-4.905 95.959-12.36 32.963-36.69 56.32-68.291 65.341-10.404 3.144-13.537 5.294-27.075 19.425l-15.309 15.892 12.165 0.584c44.155 2.161 86.538-29.635 100.27-75.151l3.533-11.776-0.788 18.637c-1.178 22.764-5.888 37.478-18.053 55.337-12.759 18.842-28.846 31.201-51.016 39.045-9.226 3.338-18.053 4.516-43.96 5.499l-32.573 1.178-49.449 53.965c-27.085 29.635-53.176 56.32-57.887 59.259-16.056 10.23-38.236 13.568-56.484 8.663zM163.512 665.876c-12.36-2.355-30.812-12.954-39.834-22.764-4.311-4.71-10.793-14.52-14.131-21.78l-6.277-13.148v-510.382l7.26-14.909c8.827-17.859 20.214-28.846 38.461-37.478l13.148-6.277h317.891c310.036 0 318.085 0 328.090 3.727 21.78 8.243 40.817 28.058 47.688 50.033 3.533 10.793 3.922 18.053 3.922 58.276v45.916h-160.717c-155.412 0-161.106 0.195-173.066 3.922-18.053 5.693-31.201 16.681-40.223 33.362-3.533 6.472-3.727 12.759-3.727 119.695v112.835l4.506 8.438c6.083 11.581 18.248 22.764 31.396 29.235l11.182 5.499 331.028 1.178-0.788 48.466-0.584 48.466-6.277 13.148c-8.632 18.248-19.62 29.624-37.478 38.461l-14.92 7.26-313.958 0.195c-172.872 0.195-317.88-0.389-322.591-1.372zM555.571 477.891c-16.292-5.1-29.43-16.087-37.478-31.59l-4.71-8.827v-166.789l5.294-10.004c6.472-12.36 17.859-22.764 30.218-27.474 9.226-3.533 18.248-3.727 216.637-3.727h207.022l9.81 5.294c11.776 6.083 20.408 15.104 26.685 27.075l4.71 8.827v166.789l-4.71 8.827c-6.277 11.971-14.909 20.992-26.685 27.075l-9.81 5.294-206.039 0.389c-113.224 0.215-208.2-0.369-210.944-1.157zM664.668 410.972c12.165-5.888 24.136-18.053 30.413-30.413 3.922-8.049 4.71-12.759 4.71-26.491 0-20.214-4.321-30.812-17.664-44.155s-23.941-17.664-44.155-17.664c-14.326 0-18.248 0.788-27.863 5.499-42.383 20.797-46.899 80.845-8.049 107.735 4.905 3.338 12.554 7.26 17.070 8.632 11.981 3.922 33.761 2.355 45.537-3.144z" />
<glyph unicode="&#xe60d;" glyph-name="jz" d="M488.878 878.060c-14.633-7.885-22.139-27.023-22.139-55.91v-24.771h-283.32l-19.886-34.519c-33.024-58.163-111.073-216.146-127.212-258.56-22.897-58.542-29.655-94.188-24.402-126.085 11.633-70.922 67.174-129.464 136.223-144.097 27.013-6.001 72.049-2.253 97.946 7.506 65.3 25.139 111.831 91.566 111.831 159.867 0 52.91-42.025 155.361-132.844 324.229-11.633 21.77-21.012 39.404-21.012 40.151 0 0.379 11.254-3.379 24.771-8.632 52.91-19.139 139.592-37.151 212.777-44.278l25.139-2.632v-633.078l-54.036-1.126c-47.657-1.126-55.163-1.874-62.29-8.632-11.633-10.138-14.633-20.644-10.506-33.024 7.506-21.012 11.633-21.77 172.247-21.77 132.096 0 147.476 0.748 157.235 6.758 19.517 11.633 21.391 32.266 3.748 48.036-7.127 6.758-14.633 7.506-62.29 8.632l-54.036 1.126v633.068l25.518 2.632c71.68 7.127 160.236 25.518 212.398 44.657l24.013 8.632-50.278-97.946c-93.819-183.501-114.084-247.296-97.567-308.091 23.644-90.061 117.453-146.35 208.271-125.338 81.428 18.76 143.35 103.946 133.591 183.501-3.379 25.897-20.265 76.554-42.035 125.716-18.76 42.783-94.188 190.259-115.958 228.157l-14.633 24.771-141.097 0.379h-141.117l-1.874 29.266c-1.874 31.519-8.253 45.404-24.013 52.541-12.39 5.99-31.15 5.243-43.162-1.137zM214.938 602.624c37.151-73.933 62.3-132.096 71.68-166.625 4.127-15.012 7.506-28.15 7.506-29.645 0-1.874-48.783-3-108.831-3h-108.82v9.001c0 9.38 3 19.139 17.633 60.416 8.632 23.644 87.060 189.512 90.061 189.512 0.379 0 14.633-26.644 30.771-59.658zM933.192 460.769c7.885-22.139 13.885-44.278 13.885-48.783v-8.632h-218.030l2.621 14.264c4.884 27.392 28.897 86.682 67.922 165.868l39.782 80.681 40.151-81.428c22.149-45.036 46.162-99.83 53.668-121.969z" />
<glyph unicode="&#xe60e;" glyph-name="jd" d="M506.122 948.838c-1.567-0.584-9.011-7.055-16.65-14.305-42.516-40.755-105.8-75.039-174.377-94.833-47.217-13.517-89.733-19.988-144.21-22.333-33.505-1.567-33.505-1.567-38.205-6.861l-4.7-5.489v-174.766c0-100.71 0.788-183.982 1.956-196.321 12.339-134.994 65.638-255.887 153.416-347.003 28.017-29.389 54.077-51.139 88.566-74.26 41.339-27.822 83.272-48.394 125.983-61.911l14.111-4.506 14.305 4.506c68.966 21.944 141.076 65.239 196.526 118.344 97.966 93.266 159.293 223.754 171.244 364.831 1.178 13.517 1.956 96.594 1.956 197.304v173.793l-4.7 5.489c-4.7 5.294-4.7 5.294-37.622 6.666-130.499 5.294-247.47 48.394-319.375 117.76-13.332 12.913-21.166 16.835-28.221 13.896zM517.089 904.95c1.956-2.355 10.772-9.8 19.395-16.456 78.377-61.133 184.576-97.772 301.548-104.038l24.883-1.372-0.788-176.538c-0.584-171.244-0.788-177.316-5.089-203.971-16.66-105.81-57.805-197.304-122.071-272.353-55.255-64.461-131.666-117.371-206.705-143.421l-16.261-5.489-16.067 5.489c-94.044 32.522-184.965 104.038-243.354 191.427-50.545 75.827-80.916 162.621-89.344 256.676-1.178 13.322-1.956 89.539-1.956 185.743v163.021h11.366c15.872 0 64.85 5.1 86.6 8.817 71.127 12.339 136.571 36.25 192.020 70.728 18.022 11.172 49.183 34.488 55.644 41.738 4.7 5.089 5.478 5.089 10.179 0zM491.428 808.94c-64.655-40.95-140.288-68.966-224.348-82.883-27.034-4.506-30.761-5.683-34.877-10.189l-4.506-5.294 0.788-138.332c0.788-145.183 0.983-148.122 10.383-192.215 25.272-118.733 92.672-220.037 188.682-284.303 24.105-16.067 76.81-42.906 84.449-42.906 7.444 0 60.15 26.644 82.883 41.933 98.949 66.222 166.932 169.482 191.232 290.181 8.233 41.144 8.622 47.411 9.4 188.293l0.788 137.349-4.506 5.294c-4.116 4.506-7.834 5.683-34.877 10.189-84.060 13.916-159.683 41.933-224.348 82.883-8.428 5.489-17.828 9.994-20.572 9.994s-12.145-4.506-20.572-9.994z" />
<glyph unicode="&#xe60f;" glyph-name="tj" d="M657.306 85.811l262.451 237.875c39.014-21.606 86.733-70.246 94.003-212.48 0 0-171.827-75.264-356.454-25.395zM852.173 656.179c0 0-31.232 22.323-119.603-28.57-88.269-50.893-195.994-49.254-213.197-45.056-17.306 4.301-32.768-1.024-26.214 12.8 6.656 14.234 35.84 73.626 35.84 73.626s11.878 30.72 0 44.544c-11.776 13.722-39.731 40.243-35.43 92.16 0 0 10.65 80.589 80.794 38.195 70.042-42.394 176.64-101.786 232.55-101.786 56.013 0 102.4-1.024 71.066-44.544 0 0-32.256-11.674-25.805-41.37zM642.15 346.726c0 0 28.979 10.547 13.005 15.872-16.179 5.325-52.736-8.499-58.163 22.221-5.325 30.822-45.261 96.563-38.81 168.653 0 0 99.635-6.349 193.843 44.544 88.269 47.718 95.027 38.4 100.454 28.774 2.458-4.301-4.813-83.354-39.014-133.837 0 0-39.936-48.845-3.277-101.888 15.872-22.938 36.659-31.846 64.614-47.718 1.126-0.614 2.56-1.331 3.994-1.843l-268.698-240.23c-30.515 11.878-61.030 27.648-90.726 48.128 0 0-68.915 49.766-16.179 117.76 52.634 67.994 138.957 79.565 138.957 79.565zM425.165 163.635c0 0-2.253-13.312-9.011-17.818-6.758-4.403-134.246-101.581-134.246-101.581s-18.125-4.506-36.147-4.506-75.674 13.414-76.8 53.35c-1.126 40.038 0 235.52 0 235.52s-5.632 33.485 22.528 57.958l117.555 79.974c0 0 3.482 2.253 8.294 4.403 10.445 4.71 27.034 9.318 27.853-9.011 1.229-26.624-4.506-40.038-4.506-40.038s-11.264-26.624-31.642 0l-99.43-71.066c0 0-11.366-18.944 9.011-26.624 20.275-7.782 42.906-1.024 63.283 13.312 20.275 14.438 107.11 83.866 107.11 83.866s13.517 15.565 27.136 4.403c13.517-11.059 9.011-26.624 9.011-26.624v-235.52zM384.512 328.090l-80.179-70.042v-40.346l80.077 70.144 0.102 40.243zM276.787 474.829c0 0-49.050-38.298-94.208-66.048-45.261-27.75-31.642-71.066-31.642-71.066v-193.638c-16.077-11.674-27.136-19.661-27.136-19.661s-18.022-4.403-36.147-4.403c-18.125 0-75.776 13.312-76.8 53.248-1.126 40.038 0 235.622 0 235.622s-5.632 33.382 22.528 57.856l117.453 79.974c0 0 3.584 2.253 8.397 4.403 10.445 4.71 27.034 9.421 27.853-8.806 1.024-26.829-4.608-40.038-4.608-40.038s-11.264-26.624-31.642 0l-99.43-71.066c0 0-11.264-18.944 9.011-26.624 20.378-7.782 42.906-1.126 63.283 13.312s116.941 83.866 116.941 83.866 13.517 15.565 27.136 4.403c13.619-11.162 9.011-26.624 9.011-26.624v-4.71z" />
<glyph unicode="&#xe610;" glyph-name="xf" d="M844.268 690.309c-18.627-6.861-36.659-18.237-53.524-33.331-6.472-6.083-6.666-6.083-5.294-1.178 0.778 2.744 1.956 8.428 2.55 12.943 0.983 7.055 0.389 8.428-4.311 12.155-4.506 3.533-8.038 4.311-19.61 4.311-25.098 0-49.603-8.428-85.484-29.798-10.783-6.277-16.671-8.233-35.686-11.366-29.409-4.905-61.757-15.493-78.223-25.293-7.055-4.311-16.466-8.428-20.777-9.216-4.311-0.584-23.337 0.389-42.353 2.161-32.543 3.328-36.864 3.328-71.363 0.195-20.193-1.761-55.685-4.116-78.817-5.1-81.756-3.922-115.476-10.199-151.941-28.232-32.543-16.077-52.931-31.57-87.245-66.068-16.66-16.865-32.737-32.154-35.492-33.915-2.744-1.761-15.094-5.294-27.443-7.844s-26.071-5.683-30.587-6.861l-8.428-2.355v-130.181c0-71.762 0.389-130.376 0.983-130.376 0.584 0 24.115 9.8 51.958 21.565 128.809 54.702 144.691 59.402 185.467 54.702 27.648-2.939 157.235-29.993 177.633-36.854 39.803-13.527 63.13-13.138 104.888 1.567 27.249 9.605 40.581 12.349 74.107 14.899 43.325 3.338 65.485 9.021 109.005 27.648l26.276 11.172 34.509 2.355c26.86 1.761 35.881 2.939 39.803 5.683 19.21 12.544 3.328 45.097-30.198 61.952-9.994 5.1-29.409 10.783-40.192 11.96-0.983 0 10.394 2.744 25.487 5.878 30.392 6.472 66.662 18.033 89.211 28.621 12.739 6.072 18.033 10.199 40.192 32.942 14.111 14.111 38.226 36.065 53.903 48.415 42.936 33.915 57.836 51.763 60.191 71.557 2.161 19.61-7.444 27.843-34.109 29.604l-16.077 0.983 4.905 8.038c21.955 35.287 21.76 58.624-0.584 66.068-29.604 9.605-80.968-17.838-97.833-52.347-4.71-9.605-6.666-11.366-20.193-18.432-8.233-4.311-23.726-14.899-34.509-23.532-20.777-17.060-20.582-16.865-41.37-18.432-17.449-1.372-47.647-7.649-69.018-14.121-17.644-5.294-46.070-18.033-45.097-20.193 9.605-21.371 9.8-21.565 18.033-22.743 4.506-0.788 12.749-3.533 18.432-6.277l10.394-4.905 19.999 5.1c10.977 2.744 34.509 6.666 52.347 8.622 31.57 3.727 32.737 3.922 44.114 11.377 6.472 4.311 20.582 12.349 31.365 18.033 10.783 5.489 28.037 16.865 38.226 25.098 10.199 8.233 23.921 17.838 30.392 21.371 14.121 7.844 36.27 17.254 37.642 15.882 0.389-0.389-7.844-5.294-18.432-10.783-17.838-9.216-27.249-15.882-56.269-39.404-6.072-4.905-19.804-13.722-30.392-19.415-10.783-5.683-24.699-13.722-30.976-17.838l-11.366-7.455-37.448-3.133c-31.171-2.55-64.307-7.455-67.246-10.199-0.195-0.195 1.567-3.533 4.311-7.055 5.489-7.455 11.766-19.21 10.783-20.388-0.389-0.389-4.905 5.1-9.994 12.155-10.004 13.722-18.432 19.016-34.703 21.565-12.155 1.761-15.288 3.727-18.627 11.96-1.761 3.922-5.294 10.199-8.038 13.722-5.683 7.444-23.132 18.227-29.604 18.227-2.939 0-7.649 4.116-15.288 13.722-15.493 19.405-25.876 26.276-42.158 28.037-4.71 0.594-3.533 0.788 3.922 0.983 7.649 0.389 13.138-0.788 18.237-3.533l7.444-4.116 17.060 7.649c27.648 12.544 44.308 17.838 63.724 20.388 14.316 1.761 20.193 3.727 28.631 8.827 5.878 3.328 20.982 10.394 33.526 15.288 16.466 6.277 25.682 11.366 33.137 17.644 5.683 4.905 10.783 8.827 11.172 8.827 0.594 0-1.956-3.533-5.294-7.844-8.038-9.994-19.415-17.254-42.742-27.249-10.199-4.311-22.548-10.783-27.843-14.121-7.844-4.905-12.943-6.472-30.781-8.827-18.821-2.355-42.353-9.021-71.557-20.193l-5.489-2.161 11.366-12.739c6.277-7.055 12.749-12.749 14.316-12.749 5.1-0.195 18.627-7.055 25.682-13.332l6.861-6.083 12.943 7.455c15.688 9.216 32.154 15.882 55.48 22.743 18.821 5.294 48.425 10.783 59.996 10.783 5.683 0 10.199 2.55 25.293 14.705 10.199 8.038 26.071 18.627 35.482 23.532 11.571 6.083 17.644 10.394 18.627 13.332 0.788 2.355 7.455 10.588 14.705 18.043 7.455 7.649 14.705 17.060 16.466 21.176 3.338 8.233 3.922 23.337 0.983 29.020-5.683 10.414-30.781 12.964-52.152 4.925zM536.852 545.034c6.472-6.472 12.544-15.493 17.838-26.47 6.472-13.527 10.199-18.821 20.982-28.426 24.699-22.159 38.226-44.513 52.347-85.484l6.277-18.821 32.543-1.178c33.526-0.983 72.735-4.905 72.735-7.055 0-0.778-7.25-0.584-16.077 0.195-29.604 2.355-89.795 1.567-106.455-1.372-31.959-5.878-36.27-3.922-71.956 30.188-14.316 13.722-30.976 28.631-36.854 33.331-22.159 17.449-59.802 32.942-113.132 46.664-27.843 7.055-30.188 7.455-59.402 7.25-25.682-0.195-32.154-0.983-41.953-4.506-11.571-4.116-16.865-4.311-9.411-0.389 10.977 5.878 28.037 8.428 58.225 9.216l31.57 0.584 18.432 10.199c23.726 12.943 33.331 19.405 48.62 32.737 6.861 5.878 12.739 10.199 13.332 9.8 0.389-0.584-6.472-8.038-15.688-16.66-13.332-12.749-20.388-17.644-38.031-26.276-11.96-5.878-21.76-10.977-21.76-11.571-0.195-0.584 9.216-2.939 20.787-5.489 26.86-5.878 62.546-17.644 80.579-26.47 20.388-10.199 32.543-18.821 51.169-36.076 18.033-16.66 18.033-16.865 6.861 10.783-8.038 20.388-17.254 32.737-33.137 45.486-10.199 7.844-14.121 12.749-19.61 23.532-9.8 19.21-8.428 21.176 2.55 3.922 7.055-10.783 12.349-16.66 20.388-21.955 22.149-14.51 38.226-43.52 40.97-73.134 0.788-7.055 4.71-11.96 19.999-24.709 14.705-12.339 21.371-14.1 43.131-10.772 9.411 1.372 17.644 2.939 18.237 3.533 1.567 1.761-23.726 55.675-31.764 68.035-4.116 6.083-15.493 18.821-25.487 28.621-15.688 15.288-19.21 19.804-25.876 34.509-4.311 9.216-10.783 20.193-14.316 24.31-6.666 7.455-31.764 25.098-39.014 27.443-2.161 0.788-3.922 2.161-3.922 3.133 0 4.127 36.465-16.855 46.275-26.655z" />
<glyph unicode="&#xe611;" glyph-name="huodong" d="M388.813 643.072c-0.512 0-1.024-0.102-1.434-0.205-16.691-4.608-32.256-16.486-43.93-33.28-10.24-14.848-16.486-32.563-16.589-47.104 0-1.536 0.512-3.174 1.536-4.301 1.126-1.229 2.662-2.048 4.198-2.048v0c3.174 0 5.734 2.867 5.734 6.246 0.102 22.528 19.763 59.494 51.61 68.301 1.536 0.41 2.97 1.536 3.584 3.174 0.717 1.434 0.922 3.072 0.512 4.608-0.307 2.765-2.56 4.608-5.222 4.608zM512 949.453c-277.094 0-501.76-224.461-501.76-501.453s224.666-501.453 501.76-501.453 501.76 224.461 501.76 501.453-224.666 501.453-501.76 501.453zM539.034 419.533c-3.379-5.53-7.27-10.752-11.162-15.77-12.595-15.565-27.136-27.853-43.52-36.352-10.547-5.632-21.709-9.523-33.075-11.571l0.614-0.717 6.656-7.578c1.741-1.946 2.253-4.915 1.126-7.475-1.024-2.458-3.277-3.994-5.734-3.994l-13.619-0.205c-3.174-12.8-0.819-24.371 1.946-37.786 4.71-22.938 10.035-49.050-8.499-89.498-1.126-2.355-3.277-3.789-5.734-3.789-1.024 0-1.843 0.205-2.662 0.717-1.536 0.819-2.867 2.253-3.379 4.096-0.512 1.638-0.41 3.482 0.307 5.12 16.486 36.147 11.776 59.802 7.475 80.589-2.765 13.414-5.325 26.214-2.662 40.653l-9.523-0.102c-2.458 0-4.71 1.536-5.734 3.891-1.126 2.458-0.717 5.427 1.024 7.475l5.734 6.861 0.614 0.717c-14.746 1.434-28.979 5.734-42.496 12.902-11.162 5.837-21.606 13.517-31.13 22.733-31.232 30.925-51.302 78.643-51.302 132.096 0 50.995 18.125 96.666 46.899 127.59 10.547 11.264 22.528 20.378 35.43 27.136 17.101 8.909 35.226 13.517 53.76 13.517 18.739 0 36.762-4.506 53.76-13.517 16.384-8.499 30.925-20.787 43.52-36.352 7.475-9.216 13.926-19.354 19.354-30.208 12.698-25.702 19.968-55.91 19.968-88.166 0.307-38.912-10.24-74.547-27.955-103.014 0.102 0 0.102 0 0 0zM719.258 397.926c-1.126-1.434-2.15-2.867-3.277-4.198-20.787-26.214-48.435-41.37-78.029-43.11l7.782-8.909c1.434-1.638 1.843-4.198 1.024-6.349-0.922-2.048-2.765-3.379-4.813-3.379l-6.349 0.102c-3.174-13.619-1.331-24.166 0.512-35.328 2.458-14.746 5.222-31.334-2.765-56.73-0.717-2.355-2.765-3.891-5.018-3.891-0.614 0-1.126 0.102-1.536 0.307-1.331 0.512-2.56 1.536-3.174 3.072-0.614 1.331-0.717 2.867-0.205 4.301 7.168 22.528 4.71 37.069 2.355 51.098-1.843 11.162-3.686 22.733-0.922 37.478h-5.325c-2.048 0-3.891 1.331-4.813 3.379-0.922 2.15-0.512 4.608 1.126 6.246l7.987 8.909c-21.094 1.741-41.165 10.138-58.163 24.166-4.301 3.482-8.192 7.373-12.083 11.571l8.602 13.926c21.811 35.328 33.382 77.414 33.382 121.856 0 33.69-6.861 66.867-19.866 96.256 16.794 10.957 36.045 17.203 56.422 17.203 27.955 0 53.658-11.674 73.933-31.232 2.97-2.97 5.837-6.144 8.602-9.523 22.016-26.726 34.304-62.464 34.611-100.454 0.102-36.045-10.445-70.144-30.003-96.768zM661.197 378.266l1.434-3.379c20.070 5.837 35.738 20.48 42.803 40.141l-2.56 2.253-41.677-39.014z" />
<glyph unicode="&#xe612;" glyph-name="organize" d="M582.042 371.2v0c1.843 3.891 4.096 7.475 6.963 10.65l-42.906 76.186c-2.867-0.717-5.734-1.126-8.806-1.331l-47.616-84.48c0.205-0.307 0.205-0.717 0.41-1.024h91.955zM565.043 946.995c-318.771 32.768-584.806-233.267-552.038-552.038 22.733-221.491 224.563-423.322 445.952-445.952 318.771-32.666 584.806 233.267 552.038 552.038-22.63 221.491-224.461 423.322-445.952 445.952zM773.53 218.112c0-9.318-7.475-16.794-16.794-16.794h-444.006c-11.059 0-19.968 8.909-19.968 19.968v221.798c0 9.318 7.475 16.794 16.794 16.794v0c9.318 0 16.794-7.475 16.794-16.794v-191.386c0-9.318 7.475-16.794 16.794-16.794h380.006c9.318 0 16.794 7.475 16.794 16.794v191.386c0 9.318 7.475 16.794 16.794 16.794v0c9.318 0 16.794-7.475 16.794-16.794v-224.973zM489.779 503.194c0.922 22.528 19.251 40.755 41.779 41.574 24.781 0.922 45.056-18.842 45.056-43.418 0-11.366-4.506-21.709-11.674-29.389l44.749-77.414c3.379 0.819 6.758 1.434 10.342 1.434v0c23.962 0 43.418-19.456 43.418-43.418s-19.456-43.418-43.418-43.418c-21.811 0-39.731 16.179-42.803 37.274h-88.166c-3.072-21.402-21.606-37.786-44.032-37.171-22.63 0.614-41.267 18.944-42.189 41.574-1.024 24.781 18.842 45.261 43.418 45.261 7.475 0 14.336-2.048 20.48-5.325l42.906 74.342c-12.39 7.885-20.582 22.016-19.866 38.093zM836.506 483.123v0c-6.758-5.325-17.408-5.018-23.757 0.614l-270.541 243.098c-5.018 4.506-13.21 4.506-18.227 0l-20.378-18.227-250.163-224.87c-6.349-5.734-16.998-6.042-23.757-0.614v0c-6.758 5.325-7.168 14.336-0.819 19.968l292.045 262.349c6.656 5.939 17.92 5.939 24.474 0l291.942-262.246c6.349-5.734 5.939-14.746-0.819-20.070z" />
<glyph unicode="&#xe613;" glyph-name="help" d="M512 949.76c-276.685 0-501.76-225.075-501.76-501.76s225.075-501.76 501.76-501.76c276.685 0 501.76 225.075 501.76 501.76s-225.075 501.76-501.76 501.76zM648.806 676.045c51.712 0 91.238-39.526 91.238-91.238s-39.526-91.238-91.238-91.238c-51.712 0-91.238 39.526-91.238 91.238s42.598 91.238 91.238 91.238zM405.606 676.045c51.712 0 91.238-39.526 91.238-91.238s-39.526-91.238-91.238-91.238c-51.712 0-91.238 39.526-91.238 91.238s39.526 91.238 91.238 91.238zM223.13 250.368c0 82.125 45.568 161.178 121.651 182.477 18.227 6.042 73.011 0 91.238 0 103.424 0 164.25-82.125 164.25-182.477h-377.139zM673.178 250.368c0 66.867-30.413 152.064-85.197 182.477 0 3.072 51.712 0 85.197 0 103.424 0 188.518-82.125 188.518-182.477h-188.518z" />
<glyph unicode="&#xe614;" glyph-name="phone" d="M511.898-53.76c277.197 0 501.862 224.666 501.862 501.76s-224.666 501.76-501.862 501.76c-276.992 0-501.658-224.666-501.658-501.76s224.666-501.76 501.658-501.76zM292.762 698.266c0 26.726 21.914 48.64 48.64 48.64h321.126c26.829 0 48.64-21.811 48.64-48.64v-534.938c0-26.829-21.811-48.64-48.64-48.64h-321.126c-26.726 0-48.64 21.811-48.64 48.64v534.938zM508.621 161.075c-1.024 0.205-2.048 0.307-3.174 0.307-10.547 0-19.046-8.499-19.046-19.046s8.499-19.149 19.046-19.149c1.126 0 2.15 0.102 3.174 0.307 9.011 1.536 15.872 9.318 15.872 18.842s-6.861 17.203-15.872 18.739zM415.13 708.301h177.254c6.554 0 11.776 5.325 11.776 11.776s-5.222 11.776-11.776 11.776h-177.254c-6.451 0-11.776-5.325-11.776-11.776-0.102-6.451 5.222-11.776 11.776-11.776zM670.208 168.141v525.107h-332.902v-525.005h332.902zM538.829 149.914c4.198 0 7.578-3.379 7.578-7.578s-3.379-7.578-7.578-7.578c-4.198 0-7.578 3.379-7.578 7.578-0.102 4.096 3.277 7.578 7.578 7.578zM464.486 142.234c0-4.198 3.379-7.578 7.578-7.578s7.578 3.379 7.578 7.578v0c0 4.198-3.379 7.578-7.578 7.578-4.198 0.102-7.578-3.379-7.578-7.578z" />
<glyph unicode="&#xe615;" glyph-name="service" d="M512 949.76c-277.094 0-501.76-224.666-501.76-501.76s224.666-501.76 501.76-501.76c277.094 0 501.76 224.666 501.76 501.76s-224.666 501.76-501.76 501.76zM738.816 302.899v-150.938h-170.598v10.035c0 49.766-40.55 90.317-90.317 90.317-49.869 0-90.317-40.55-90.317-90.317v-10.035h-170.598v170.598h10.035c49.766 0 90.317 40.55 90.317 90.317s-40.55 90.317-90.317 90.317h-10.035v170.598h150.938c5.12 56.218 52.429 100.352 109.978 100.352 57.446 0 104.858-44.134 109.875-100.352h151.040v-150.938c56.218-5.12 100.352-52.429 100.352-109.978 0-57.446-44.134-104.858-100.352-109.978z" />
<glyph unicode="&#xe616;" glyph-name="cart-total" d="M512 949.76c-277.094 0-501.76-224.666-501.76-501.76s224.666-501.76 501.76-501.76c277.094 0 501.76 224.666 501.76 501.76s-224.666 501.76-501.76 501.76v0 0zM771.379 563.2h-187.597v-387.072h-141.517v387.072h-189.338v134.656h518.451v-134.656z" />
<glyph unicode="&#xe617;" glyph-name="gongyi" d="M1013.76 448c0-277.402-224.358-501.76-501.76-501.76s-501.76 224.358-501.76 501.76c0 277.402 224.358 501.76 501.76 501.76s501.76-224.358 501.76-501.76zM524.902 226.509l184.934 169.882c27.238 25.088 42.291 58.778 42.291 93.901 0 35.84-15.053 68.813-42.291 93.901-24.371 22.221-56.627 34.406-90.317 34.406-34.406 0-65.946-12.186-90.317-34.406l-17.203-14.336-16.486 15.053c-24.371 22.221-56.627 34.406-90.317 34.406s-65.946-12.186-90.317-34.406c-27.238-25.088-42.291-58.778-42.291-93.901 0-35.84 15.053-68.813 42.291-93.901l184.934-169.882c3.584-3.584 7.885-5.018 12.902-5.018 3.584 0 8.602 1.434 12.186 4.301z" />
<glyph unicode="&#xe618;" glyph-name="market" d="M994.918 598.528l-94.106 125.338c-3.686 4.915-7.987 9.216-12.493 13.312v149.914c0 34.611-28.058 62.669-62.669 62.669h-627.2c-34.611 0-62.771-28.058-62.771-62.669v-149.914c-4.506-4.096-8.909-8.294-12.493-13.21l-94.106-125.44c-12.186-16.179-18.842-36.147-18.842-56.422v-31.334c0-51.917 42.189-94.106 94.106-94.106v0-407.654c0-34.611 28.058-62.669 62.771-62.669h689.869c34.611 0 62.771 28.058 62.771 62.669v407.654c51.917 0 94.106 42.189 94.106 94.106v31.334c-0.102 20.275-6.758 40.243-18.944 56.422v0zM825.651 887.091v-125.44h-627.2v125.44h627.2zM329.933 479.334h-131.379l125.44 219.546h68.608l-62.669-219.546zM425.267 698.88h71.066v-219.546h-133.837l62.771 219.546zM527.667 698.88h71.066l62.771-219.546h-133.837v219.546zM631.296 698.88h68.608l125.44-219.546h-131.277l-62.771 219.546zM72.909 510.771v31.334c0 6.758 2.15 13.414 6.246 18.842l94.106 125.44c5.939 7.885 15.258 12.493 25.088 12.493h89.395l-125.338-219.546h-58.061c-17.306 0-31.437 14.029-31.437 31.437v0zM637.44 9.011h-235.213v313.549h235.213v-313.549zM856.986 9.011h-188.211v313.549c0 17.306-14.131 31.334-31.334 31.334h-235.213c-17.306 0-31.334-14.029-31.334-31.334v-313.651h-203.878v407.757h689.869v-407.654h0.102zM951.091 510.771c0-17.306-14.029-31.334-31.334-31.334h-58.163l-125.542 219.443h89.498c9.83 0 19.149-4.608 25.088-12.493l94.106-125.44c4.096-5.427 6.349-11.981 6.349-18.842v-31.334z" />
<glyph unicode="&#xe619;" glyph-name="life" d="M1003.827 612.966c-13.312 13.312-34.816 13.312-48.128 0l-27.238-27.238c0.205 3.686 0.205 7.373 0.205 10.957 0.102 72.090-28.57 142.848-83.046 196.608-55.091 54.579-127.386 81.92-199.475 81.818-62.464 0.102-125.030-20.582-176.538-61.44-51.405 40.96-114.176 61.542-176.538 61.44-72.090 0.102-144.384-27.238-199.578-81.818v0c-54.579-53.658-83.251-124.621-83.251-196.915 0-74.138 30.208-149.504 90.624-209.408 119.706-118.784 311.296-309.043 344.781-342.323l23.962-23.859 23.962 23.859c33.587 33.28 225.075 223.539 344.781 342.323 3.072 3.174 3.686 3.994 3.686 3.994 13.107 13.414 12.8 35.021-0.717 48.128s-35.021 12.8-48.128-0.717c-2.765-2.867-2.765-3.072-2.765-2.97-102.298-101.581-257.024-255.181-320.819-318.566-63.693 63.283-218.419 216.883-320.819 318.566-48.23 47.923-70.349 105.267-70.451 161.075 0.102 54.272 21.197 107.11 62.976 148.48 42.086 41.37 96.768 62.054 151.757 62.157 55.398 0 110.49-20.992 152.474-62.976l24.064-23.962 24.064 23.962c42.086 41.984 97.075 62.976 152.474 62.976 54.989 0 109.773-20.685 151.757-62.157 41.574-41.165 62.669-93.798 62.669-148.173 0-6.451-0.307-12.8-0.922-19.251l-39.322 39.322c-13.312 13.312-34.816 13.312-48.128 0-13.21-13.312-13.21-34.816 0-48.128l82.637-82.534v-0.102l35.123-35.021 113.869 113.766c13.21 13.312 13.21 34.918 0 48.128z" />
<glyph unicode="&#xe61a;" glyph-name="home" d="M762.982 15.565c-2.458 0-4.506 0.102-5.837 0.205h-68.301c-18.125 0-32.768 14.643-32.768 32.768v229.274h-138.854v-229.274c0-18.125-14.643-32.768-32.768-32.768h-228.045c-8.294-0.307-44.544 0.102-72.909 26.726-14.438 13.517-31.642 38.912-31.642 82.842v276.89h-108.851c-13.21 0-25.19 7.987-30.31 20.275-5.018 12.288-2.253 26.317 7.168 35.738l414.003 412.672c12.8 12.8 33.587 12.698 46.285-0.102 12.8-12.8 12.698-33.587-0.102-46.285l-357.786-356.762h62.259c18.125 0 32.768-14.643 32.768-32.768v-309.658c0-16.384 3.686-28.262 11.059-35.123 9.83-9.216 25.19-9.114 25.395-9.011 0.717 0 1.331 0.102 2.048 0.102h196.096v229.171c0 18.125 14.643 32.768 32.768 32.768h204.39c18.125 0 32.768-14.643 32.768-32.768v-229.274h36.659c1.126 0 1.638 0 2.765-0.102 6.349-0.41 24.269 0.819 34.816 10.65 7.27 6.758 10.957 18.125 10.957 33.587v309.658c0 18.125 14.643 32.768 32.768 32.768h62.464l-291.533 291.226c-12.8 12.8-12.8 33.485 0 46.285s33.485 12.8 46.285 0l347.136-347.136c9.318-9.318 12.186-23.45 7.066-35.738-5.018-12.288-16.998-20.173-30.208-20.173h-108.749v-276.89c0-43.315-17.613-68.506-32.358-82.022-26.931-24.678-61.44-27.75-76.902-27.75z" />
<glyph unicode="&#xe61b;" glyph-name="user" d="M106.291-53.76c-0.614 8.192-0.922 16.384-0.922 24.678 0 203.059 182.374 368.128 406.63 368.128s406.63-165.171 406.63-368.128c0-8.294-0.307-16.486-0.922-24.678h69.222c0.512 8.192 0.717 16.384 0.717 24.678 0 59.494-12.8 117.248-37.888 171.52-24.166 52.224-58.675 99.021-102.605 139.162-69.632 63.59-156.877 104.96-251.494 120.32 112.947 35.84 195.072 142.234 195.072 267.571 0 154.419-125.030 280.269-278.733 280.269s-278.733-125.85-278.733-280.474c0-125.338 82.125-231.731 195.072-267.571-94.72-15.36-181.965-56.73-251.494-120.32-43.93-40.141-78.438-86.938-102.605-139.162-25.19-54.272-37.888-112.026-37.888-171.52 0-8.294 0.205-16.486 0.717-24.678l69.222 0.205zM304.435 669.286c0 115.2 93.082 208.896 207.565 208.896s207.565-93.696 207.565-208.896c0-115.2-93.082-208.896-207.565-208.896s-207.565 93.798-207.565 208.896z" />
</font>
</defs>
</svg>
